{
  "accessors": [
    {
      "bufferView": 2,
      "componentType": 5126,
      "count": 6786,
      "max": [
        -1905.7760009765625,
        -1194.791015625,
        7148.18505859375
      ],
      "min": [
        -1991.72802734375,
        -1217.883056640625,
        7126.69921875
      ],
      "type": "VEC3"
    },
    {
      "bufferView": 2,
      "byteOffset": 81432,
      "componentType": 5126,
      "count": 6786,
      "max": [
        0.999600887298584,
        0.509972095489502,
        0.999993085861206
      ],
      "min": [
        -0.9998297095298767,
        -0.8556597828865051,
        -0.9999914765357971
      ],
      "type": "VEC3"
    },
    {
      "bufferView": 1,
      "componentType": 5126,
      "count": 6786,
      "max": [
        1.0,
        1.0
      ],
      "min": [
        0.0,
        0.0
      ],
      "type": "VEC2"
    },
    {
      "bufferView": 0,
      "componentType": 5125,
      "count": 36288,
      "type": "SCALAR"
    },
    {
      "bufferView": 2,
      "byteOffset": 162864,
      "componentType": 5126,
      "count": 1858,
      "max": [
        -1837.3780517578125,
        -1244.7239990234375,
        7180.36181640625
      ],
      "min": [
        -2148.02294921875,
        -1833.6400146484375,
        7089.52392578125
      ],
      "type": "VEC3"
    },
    {
      "bufferView": 2,
      "byteOffset": 185160,
      "componentType": 5126,
      "count": 1858,
      "max": [
        0.9989553093910217,
        0.9982467293739319,
        0.9999033212661743
      ],
      "min": [
        -0.9996749758720398,
        -0.9977887868881226,
        -0.9997525215148926
      ],
      "type": "VEC3"
    },
    {
      "bufferView": 1,
      "byteOffset": 54288,
      "componentType": 5126,
      "count": 1858,
      "max": [
        1.9876669645309448,
        0.9922841191291809
      ],
      "min": [
        0.0,
        0.0
      ],
      "type": "VEC2"
    },
    {
      "bufferView": 0,
      "byteOffset": 145152,
      "componentType": 5125,
      "count": 5346,
      "type": "SCALAR"
    },
    {
      "bufferView": 2,
      "byteOffset": 207456,
      "componentType": 5126,
      "count": 1490,
      "max": [
        -1819.7969970703125,
        -1192.7850341796875,
        7181.5341796875
      ],
      "min": [
        -2139.35498046875,
        -1829.9200439453125,
        7094.12890625
      ],
      "type": "VEC3"
    },
    {
      "bufferView": 2,
      "byteOffset": 225336,
      "componentType": 5126,
      "count": 1490,
      "max": [
        0.9999547004699707,
        0.999169111251831,
        0.9997507929801941
      ],
      "min": [
        -0.9996895790100098,
        -0.9992125034332275,
        -0.999903678894043
      ],
      "type": "VEC3"
    },
    {
      "bufferView": 1,
      "byteOffset": 69152,
      "componentType": 5126,
      "count": 1490,
      "max": [
        0.9888550043106079,
        0.9894734025001526
      ],
      "min": [
        0.0,
        0.0
      ],
      "type": "VEC2"
    },
    {
      "bufferView": 0,
      "byteOffset": 166536,
      "componentType": 5125,
      "count": 3804,
      "type": "SCALAR"
    },
    {
      "bufferView": 2,
      "byteOffset": 243216,
      "componentType": 5126,
      "count": 2682,
      "max": [
        -1903.5379638671875,
        -1263.6290283203125,
        7181.251953125
      ],
      "min": [
        -2089.031005859375,
        -1662.656982421875,
        7111.94189453125
      ],
      "type": "VEC3"
    },
    {
      "bufferView": 2,
      "byteOffset": 275400,
      "componentType": 5126,
      "count": 2682,
      "max": [
        0.996074914932251,
        0.9995931386947632,
        0.9999244809150696
      ],
      "min": [
        -0.996487021446228,
        -0.9995782971382141,
        -0.9999973773956299
      ],
      "type": "VEC3"
    },
    {
      "bufferView": 1,
      "byteOffset": 81072,
      "componentType": 5126,
      "count": 2682,
      "max": [
        0.0,
        0.0
      ],
      "min": [
        0.0,
        0.0
      ],
      "type": "VEC2"
    },
    {
      "bufferView": 0,
      "byteOffset": 181752,
      "componentType": 5125,
      "count": 5022,
      "type": "SCALAR"
    },
    {
      "bufferView": 2,
      "byteOffset": 307584,
      "componentType": 5126,
      "count": 7614,
      "max": [
        -1806.2120361328125,
        -1165.5009765625,
        7188.630859375
      ],
      "min": [
        -2163.787109375,
        -1857.0670166015625,
        7096.798828125
      ],
      "type": "VEC3"
    },
    {
      "bufferView": 2,
      "byteOffset": 398952,
      "componentType": 5126,
      "count": 7614,
      "max": [
        0.9989985227584839,
        0.999931275844574,
        0.9998930096626282
      ],
      "min": [
        -0.9997619986534119,
        -0.999915599822998,
        -0.9999241828918457
      ],
      "type": "VEC3"
    },
    {
      "bufferView": 1,
      "byteOffset": 102528,
      "componentType": 5126,
      "count": 7614,
      "max": [
        2.9983460903167725,
        0.9962955713272095
      ],
      "min": [
        0.0,
        0.0
      ],
      "type": "VEC2"
    },
    {
      "bufferView": 0,
      "byteOffset": 201840,
      "componentType": 5125,
      "count": 16518,
      "type": "SCALAR"
    },
    {
      "bufferView": 2,
      "byteOffset": 490320,
      "componentType": 5126,
      "count": 2682,
      "max": [
        -1903.5379638671875,
        -1263.6290283203125,
        7181.251953125
      ],
      "min": [
        -2089.031005859375,
        -1662.656982421875,
        7111.94189453125
      ],
      "type": "VEC3"
    },
    {
      "bufferView": 2,
      "byteOffset": 522504,
      "componentType": 5126,
      "count": 2682,
      "max": [
        0.996074914932251,
        0.9995931386947632,
        0.9999244809150696
      ],
      "min": [
        -0.996487021446228,
        -0.9995782971382141,
        -0.9999973773956299
      ],
      "type": "VEC3"
    },
    {
      "bufferView": 1,
      "byteOffset": 163440,
      "componentType": 5126,
      "count": 2682,
      "max": [
        0.9921875,
        0.995147705078125
      ],
      "min": [
        0.005252838134765625,
        0.005859375
      ],
      "type": "VEC2"
    },
    {
      "bufferView": 0,
      "byteOffset": 267912,
      "componentType": 5125,
      "count": 5022,
      "type": "SCALAR"
    }
  ],
  "asset": {
    "extras": {
      "author": "sean24 (https://sketchfab.com/sean24)",
      "license": "CC-BY-4.0 (http://creativecommons.org/licenses/by/4.0/)",
      "source": "https://sketchfab.com/3d-models/homeworld-3-ship-6527b02442c34e98b35272a561c4d166",
      "title": "Homeworld 3 Ship"
    },
    "generator": "Sketchfab-15.77.0",
    "version": "2.0"
  },
  "bufferViews": [
    {
      "buffer": 0,
      "byteLength": 288000,
      "name": "floatBufferViews",
      "target": 34963
    },
    {
      "buffer": 0,
      "byteLength": 184896,
      "byteOffset": 288000,
      "byteStride": 8,
      "name": "floatBufferViews",
      "target": 34962
    },
    {
      "buffer": 0,
      "byteLength": 554688,
      "byteOffset": 472896,
      "byteStride": 12,
      "name": "floatBufferViews",
      "target": 34962
    }
  ],
  "buffers": [
    {
      "byteLength": 1027584,
      "uri": "scene.bin"
    }
  ],
  "extensionsUsed": [
    "KHR_materials_unlit"
  ],
  "images": [
    {
      "uri": "textures/mat_37_baseColor.png"
    },
    {
      "uri": "textures/mat_36_baseColor.png"
    },
    {
      "uri": "textures/mat_34_baseColor.png"
    },
    {
      "uri": "textures/mat_38_baseColor.png"
    }
  ],
  "materials": [
    {
      "doubleSided": true,
      "extensions": {
        "KHR_materials_unlit": {}
      },
      "name": "mat_66",
      "pbrMetallicRoughness": {
        "baseColorFactor": [
          0.8,
          0.8,
          0.8,
          1.0
        ],
        "metallicFactor": 0.0
      }
    },
    {
      "doubleSided": true,
      "extensions": {
        "KHR_materials_unlit": {}
      },
      "name": "mat_37",
      "pbrMetallicRoughness": {
        "baseColorTexture": {
          "index": 0
        },
        "metallicFactor": 0.0
      }
    },
    {
      "doubleSided": true,
      "extensions": {
        "KHR_materials_unlit": {}
      },
      "name": "mat_36",
      "pbrMetallicRoughness": {
        "baseColorTexture": {
          "index": 1
        },
        "metallicFactor": 0.0
      }
    },
    {
      "doubleSided": true,
      "extensions": {
        "KHR_materials_unlit": {}
      },
      "name": "mat_34",
      "pbrMetallicRoughness": {
        "baseColorTexture": {
          "index": 2
        },
        "metallicFactor": 0.0
      }
    },
    {
      "doubleSided": true,
      "extensions": {
        "KHR_materials_unlit": {}
      },
      "name": "mat_38",
      "pbrMetallicRoughness": {
        "baseColorTexture": {
          "index": 3
        },
        "metallicFactor": 0.0
      }
    },
    {
      "doubleSided": true,
      "extensions": {
        "KHR_materials_unlit": {}
      },
      "name": "mat_2",
      "pbrMetallicRoughness": {
        "metallicFactor": 0.0
      }
    }
  ],
  "meshes": [
    {
      "name": "mat_66-material",
      "primitives": [
        {
          "attributes": {
            "NORMAL": 1,
            "POSITION": 0,
            "TEXCOORD_0": 2
          },
          "indices": 3,
          "material": 0,
          "mode": 4
        }
      ]
    },
    {
      "name": "mat_37-material",
      "primitives": [
        {
          "attributes": {
            "NORMAL": 5,
            "POSITION": 4,
            "TEXCOORD_0": 6
          },
          "indices": 7,
          "material": 1,
          "mode": 4
        }
      ]
    },
    {
      "name": "mat_36-material",
      "primitives": [
        {
          "attributes": {
            "NORMAL": 9,
            "POSITION": 8,
            "TEXCOORD_0": 10
          },
          "indices": 11,
          "material": 2,
          "mode": 4
        }
      ]
    },
    {
      "name": "mat_34-material",
      "primitives": [
        {
          "attributes": {
            "NORMAL": 13,
            "POSITION": 12,
            "TEXCOORD_0": 14
          },
          "indices": 15,
          "material": 3,
          "mode": 4
        }
      ]
    },
    {
      "name": "mat_38-material",
      "primitives": [
        {
          "attributes": {
            "NORMAL": 17,
            "POSITION": 16,
            "TEXCOORD_0": 18
          },
          "indices": 19,
          "material": 4,
          "mode": 4
        }
      ]
    },
    {
      "name": "mat_2-material",
      "primitives": [
        {
          "attributes": {
            "NORMAL": 21,
            "POSITION": 20,
            "TEXCOORD_0": 22
          },
          "indices": 23,
          "material": 5,
          "mode": 4
        }
      ]
    }
  ],
  "nodes": [
    {
      "children": [
        1
      ],
      "matrix": [
        1.0,
        0.0,
        0.0,
        0.0,
        0.0,
        2.220446049250313e-16,
        -1.0,
        0.0,
        0.0,
        1.0,
        2.220446049250313e-16,
        0.0,
        0.0,
        0.0,
        0.0,
        1.0
      ],
      "name": "Sketchfab_model"
    },
    {
      "children": [
        2
      ],
      "name": "Collada visual scene group"
    },
    {
      "children": [
        3,
        4,
        5,
        6,
        7,
        8
      ],
      "matrix": [
        21.89772,
        0.0,
        0.0,
        0.0,
        0.0,
        21.89772,
        0.0,
        0.0,
        0.0,
        0.0,
        21.89772,
        0.0,
        37260.05,
        32377.92,
        -154163.4,
        1.0
      ],
      "name": "ttest"
    },
    {
      "mesh": 0,
      "name": "mat_66-material"
    },
    {
      "mesh": 1,
      "name": "mat_37-material"
    },
    {
      "mesh": 2,
      "name": "mat_36-material"
    },
    {
      "mesh": 3,
      "name": "mat_34-material"
    },
    {
      "mesh": 4,
      "name": "mat_38-material"
    },
    {
      "mesh": 5,
      "name": "mat_2-material"
    }
  ],
  "samplers": [
    {
      "magFilter": 9729,
      "minFilter": 9987,
      "wrapS": 10497,
      "wrapT": 10497
    }
  ],
  "scene": 0,
  "scenes": [
    {
      "name": "Sketchfab_Scene",
      "nodes": [
        0
      ]
    }
  ],
  "textures": [
    {
      "sampler": 0,
      "source": 0
    },
    {
      "sampler": 0,
      "source": 1
    },
    {
      "sampler": 0,
      "source": 2
    },
    {
      "sampler": 0,
      "source": 3
    }
  ]
}
