{
  "accessors": [
    {
      "bufferView": 2,
      "componentType": 5126,
      "count": 10891,
      "max": [
        2.2911651134490967,
        9.58961296081543,
        -2.4194560050964355
      ],
      "min": [
        -2.490546941757202,
        3.3369686603546143,
        -6.521048069000244
      ],
      "type": "VEC3"
    },
    {
      "bufferView": 2,
      "byteOffset": 130692,
      "componentType": 5126,
      "count": 10891,
      "max": [
        0.9995996356010437,
        0.9998999238014221,
        0.9998095631599426
      ],
      "min": [
        -0.9999754428863525,
        -0.9999278783798218,
        -0.9999822974205017
      ],
      "type": "VEC3"
    },
    {
      "bufferView": 1,
      "componentType": 5126,
      "count": 10891,
      "max": [
        0.9948440194129944,
        0.9981989860534668
      ],
      "min": [
        0.0059739998541772366,
        0.006384015083312988
      ],
      "type": "VEC2"
    },
    {
      "bufferView": 0,
      "componentType": 5125,
      "count": 59286,
      "type": "SCALAR"
    },
    {
      "bufferView": 2,
      "byteOffset": 261384,
      "componentType": 5126,
      "count": 23849,
      "max": [
        4.244507789611816,
        5.3952178955078125,
        4.140882968902588
      ],
      "min": [
        -5.525407791137695,
        -0.008920431137084961,
        -5.522678852081299
      ],
      "type": "VEC3"
    },
    {
      "bufferView": 2,
      "byteOffset": 547572,
      "componentType": 5126,
      "count": 23849,
      "max": [
        0.9999457597732544,
        0.9999994039535522,
        0.9998981356620789
      ],
      "min": [
        -0.9999653697013855,
        -0.9996616244316101,
        -0.9998942613601685
      ],
      "type": "VEC3"
    },
    {
      "bufferView": 1,
      "byteOffset": 87128,
      "componentType": 5126,
      "count": 23849,
      "max": [
        0.9940029978752136,
        0.9956309795379639
      ],
      "min": [
        0.006655000150203705,
        0.00689697265625
      ],
      "type": "VEC2"
    },
    {
      "bufferView": 0,
      "byteOffset": 237144,
      "componentType": 5125,
      "count": 128061,
      "type": "SCALAR"
    },
    {
      "bufferView": 2,
      "byteOffset": 833760,
      "componentType": 5126,
      "count": 5763,
      "max": [
        2.6345572471618652,
        2.868100166320801,
        5.235031604766846
      ],
      "min": [
        -2.795046091079712,
        0.0003178950573783368,
        -7.595536708831787
      ],
      "type": "VEC3"
    },
    {
      "bufferView": 2,
      "byteOffset": 902916,
      "componentType": 5126,
      "count": 5763,
      "max": [
        0.9982062578201294,
        0.9997914433479309,
        0.9994609951972961
      ],
      "min": [
        -0.9997785091400146,
        -0.9998644590377808,
        -0.9994605779647827
      ],
      "type": "VEC3"
    },
    {
      "bufferView": 1,
      "byteOffset": 277920,
      "componentType": 5126,
      "count": 5763,
      "max": [
        0.9937599897384644,
        0.9930300116539001
      ],
      "min": [
        0.00535999983549118,
        0.005879998207092285
      ],
      "type": "VEC2"
    },
    {
      "bufferView": 0,
      "byteOffset": 749388,
      "componentType": 5125,
      "count": 30270,
      "type": "SCALAR"
    }
  ],
  "asset": {
    "extras": {
      "author": "ETverde (https://sketchfab.com/canibalkinight)",
      "license": "CC-BY-4.0 (http://creativecommons.org/licenses/by/4.0/)",
      "source": "https://sketchfab.com/3d-models/fish-5545cdd5844546b79e64de3dcc79b7a7",
      "title": "fish"
    },
    "generator": "Sketchfab-12.65.0",
    "version": "2.0"
  },
  "bufferViews": [
    {
      "buffer": 0,
      "byteLength": 870468,
      "name": "floatBufferViews",
      "target": 34963
    },
    {
      "buffer": 0,
      "byteLength": 324024,
      "byteOffset": 870468,
      "byteStride": 8,
      "name": "floatBufferViews",
      "target": 34962
    },
    {
      "buffer": 0,
      "byteLength": 972072,
      "byteOffset": 1194492,
      "byteStride": 12,
      "name": "floatBufferViews",
      "target": 34962
    }
  ],
  "buffers": [
    {
      "byteLength": 2166564,
      "uri": "scene.bin"
    }
  ],
  "images": [
    {
      "uri": "textures/Material.001_metallicRoughness.png"
    }
  ],
  "materials": [
    {
      "doubleSided": true,
      "name": "Material.001",
      "pbrMetallicRoughness": {
        "baseColorFactor": [
          0.03655185728608724,
          0.10398925365419769,
          0.33108273651581677,
          1.0
        ],
        "metallicFactor": 0.43340234329873717,
        "metallicRoughnessTexture": {
          "index": 0
        }
      }
    },
    {
      "doubleSided": true,
      "name": "material",
      "pbrMetallicRoughness": {
        "baseColorFactor": [
          0.304058951623706,
          0.516529400257709,
          0.9309814245047139,
          1.0
        ],
        "roughnessFactor": 0.0
      }
    },
    {
      "doubleSided": true,
      "name": "material_2",
      "pbrMetallicRoughness": {
        "baseColorFactor": [
          0.154382585575975,
          0.3754943936606008,
          0.8928293248917687,
          1.0
        ],
        "roughnessFactor": 0.0
      }
    }
  ],
  "meshes": [
    {
      "name": "Object_0",
      "primitives": [
        {
          "attributes": {
            "NORMAL": 1,
            "POSITION": 0,
            "TEXCOORD_0": 2
          },
          "indices": 3,
          "material": 0,
          "mode": 4
        }
      ]
    },
    {
      "name": "Object_1",
      "primitives": [
        {
          "attributes": {
            "NORMAL": 5,
            "POSITION": 4,
            "TEXCOORD_0": 6
          },
          "indices": 7,
          "material": 1,
          "mode": 4
        }
      ]
    },
    {
      "name": "Object_2",
      "primitives": [
        {
          "attributes": {
            "NORMAL": 9,
            "POSITION": 8,
            "TEXCOORD_0": 10
          },
          "indices": 11,
          "material": 2,
          "mode": 4
        }
      ]
    }
  ],
  "nodes": [
    {
      "children": [
        1
      ],
      "matrix": [
        1.0,
        0.0,
        0.0,
        0.0,
        0.0,
        2.220446049250313e-16,
        -1.0,
        0.0,
        0.0,
        1.0,
        2.220446049250313e-16,
        0.0,
        0.0,
        0.0,
        0.0,
        1.0
      ],
      "name": "Sketchfab_model"
    },
    {
      "children": [
        2
      ],
      "name": "root"
    },
    {
      "children": [
        3,
        8
      ],
      "matrix": [
        1.0,
        0.0,
        0.0,
        0.0,
        0.0,
        2.220446049250313e-16,
        1.0,
        0.0,
        0.0,
        -1.0,
        2.220446049250313e-16,
        0.0,
        0.0,
        0.0,
        0.0,
        1.0
      ],
      "name": "GLTF_SceneRootNode"
    },
    {
      "children": [
        4,
        6
      ],
      "matrix": [
        0.0010000000474974513,
        0.0,
        0.0,
        0.0,
        0.0,
        -9.709461386954603e-05,
        0.0009952750866578483,
        0.0,
        0.0,
        -0.0009952750866578483,
        -9.709461386954603e-05,
        0.0,
        0.027912957593798637,
        0.9309510588645935,
        0.0770878940820694,
        1.0
      ],
      "name": "node_id96_3"
    },
    {
      "children": [
        5
      ],
      "matrix": [
        52.40578079223633,
        0.0,
        0.0,
        0.0,
        -0.0,
        8.834952238595518e-06,
        -52.40576934814378,
        0.0,
        0.0,
        52.40576934814378,
        8.834952238595518e-06,
        0.0,
        -56.88640213012695,
        325.51190185546875,
        637.4691162109375,
        1.0
      ],
      "name": "node_id92_1"
    },
    {
      "mesh": 0,
      "name": "Object_5"
    },
    {
      "children": [
        7
      ],
      "matrix": [
        52.40578079223633,
        0.0,
        0.0,
        0.0,
        -0.0,
        8.834952238595518e-06,
        -52.40576934814378,
        0.0,
        0.0,
        52.40576934814378,
        8.834952238595518e-06,
        0.0,
        -56.88640213012695,
        325.51190185546875,
        637.4691162109375,
        1.0
      ],
      "name": "node_id94_2"
    },
    {
      "mesh": 1,
      "name": "Object_7"
    },
    {
      "children": [
        9
      ],
      "name": "root_5"
    },
    {
      "children": [
        10
      ],
      "matrix": [
        0.0032113735784627196,
        0.0,
        -0.022401048020133034,
        0.0,
        0.0,
        0.02263006567955017,
        0.0,
        0.0,
        0.022401048020133034,
        0.0,
        0.0032113735784627196,
        0.0,
        -0.06507599353790283,
        0.506424605846405,
        0.33220213651657104,
        1.0
      ],
      "name": "node_id111_4"
    },
    {
      "mesh": 2,
      "name": "Object_10"
    }
  ],
  "samplers": [
    {
      "magFilter": 9729,
      "minFilter": 9987,
      "wrapS": 10497,
      "wrapT": 10497
    }
  ],
  "scene": 0,
  "scenes": [
    {
      "name": "Sketchfab_Scene",
      "nodes": [
        0
      ]
    }
  ],
  "textures": [
    {
      "sampler": 0,
      "source": 0
    }
  ]
}
